<?xml version="1.0" encoding="UTF-8"?>
<svg width="137px" height="22px" viewBox="0 0 137 22" version="1.1" xmlns="http://www.w3.org/2000/svg" xmlns:xlink="http://www.w3.org/1999/xlink">
    <!-- Generator: Sketch 47 (45396) - http://www.bohemiancoding.com/sketch -->
    <title>@vEmbibe</title>
    <desc>Created with Sketch.</desc>
    <defs>
        <polygon id="path-1" points="0 12.8558182 0 0.0926416079 5.8044564 0.0926416079 5.8044564 12.8558182"></polygon>
        <polygon id="path-3" points="0.0288323246 0.0625757576 13.021473 0.0625757576 13.021473 5.76944242 0.0288323246 5.76944242 0.0288323246 0.0625757576"></polygon>
    </defs>
    <g id="Page-1" stroke="none" stroke-width="1" fill="none" fill-rule="evenodd">
        <g id="Embibe" transform="translate(-3.000000, -3.000000)">
            <g id="Embibe-long" transform="translate(3.816047, 3.500000)">
                <g id="embibe-written" transform="translate(27.984344, 3.250000)" fill="#928F90">
                    <path d="M9.62324008,14.4569091 L0.500502544,14.4569091 C0.224147476,14.4569091 0,14.2365152 0,13.9645758 L0,0.492333333 C0,0.220393939 0.224147476,0 0.500502544,0 L9.54989057,0 C9.82624564,0 10.0506088,0.220393939 10.0506088,0.492333333 L10.0506088,0.695121212 C10.0506088,0.966848485 9.82624564,1.18745455 9.54989057,1.18745455 L1.78196164,1.18745455 C1.50539084,1.18745455 1.2814591,1.40784848 1.2814591,1.67978788 L1.2814591,6.09572727 C1.2814591,6.36766667 1.50539084,6.58827273 1.78196164,6.58827273 L9.29769769,6.58827273 C9.57426849,6.58827273 9.79841597,6.80866667 9.79841597,7.08060606 L9.79841597,7.273 C9.79841597,7.54515152 9.57426849,7.76554545 9.29769769,7.76554545 L1.78196164,7.76554545 C1.50539084,7.76554545 1.2814591,7.98593939 1.2814591,8.25787879 L1.2814591,12.7771212 C1.2814591,13.0490606 1.50539084,13.2694545 1.78196164,13.2694545 L9.62324008,13.2694545 C9.89981088,13.2694545 10.1241741,13.4898485 10.1241741,13.762 L10.1241741,13.9645758 C10.1241741,14.2365152 9.89981088,14.4569091 9.62324008,14.4569091" id="Fill-1"></path>
                    <path d="M28.1165933,14.4569091 L27.8370023,14.4569091 C27.5602157,14.4569091 27.3360683,14.2365152 27.3360683,13.9645758 L27.3360683,2.07518182 C27.3360683,1.91863636 27.1207659,1.86963636 27.0508681,2.01048485 L21.864842,12.4663636 C21.7809215,12.6356364 21.6063928,12.7427576 21.4150369,12.7427576 L20.6852092,12.7427576 C20.494069,12.7427576 20.3195404,12.6360606 20.2356199,12.4672121 L15.0500252,2.06881818 C14.979696,1.92839394 14.764825,1.97739394 14.764825,2.13393939 L14.764825,13.9645758 C14.764825,14.2365152 14.5404618,14.4569091 14.263891,14.4569091 L13.9843,14.4569091 C13.7075134,14.4569091 13.4833659,14.2365152 13.4833659,13.9645758 L13.4833659,0.492333333 C13.4833659,0.220393939 13.7075134,0 13.9843,0 L15.1041744,0 C15.2948831,0 15.4694118,0.106484848 15.5533323,0.274909091 L20.6060349,10.3676364 C20.7896244,10.7343939 21.3211926,10.7341818 21.5047822,10.3672121 L26.547561,0.275333333 C26.6316972,0.10669697 26.8060102,0 26.9969346,0 L28.1165933,0 C28.3931641,0 28.6173116,0.220393939 28.6173116,0.492333333 L28.6173116,13.9645758 C28.6173116,14.2365152 28.3931641,14.4569091 28.1165933,14.4569091" id="Fill-3"></path>
                    <path d="M34.6080535,8.17515152 L34.6080535,12.7771212 C34.6080535,13.0490606 34.832201,13.2694545 35.1087718,13.2694545 L39.1973598,13.2694545 C41.5920056,13.2694545 43.16751,12.5673333 43.16751,10.4707273 C43.16751,8.37475758 41.5920056,7.68281818 39.1973598,7.68281818 L35.1087718,7.68281818 C34.832201,7.68281818 34.6080535,7.90321212 34.6080535,8.17515152 L34.6080535,8.17515152 Z M34.6080535,1.67978788 L34.6080535,6.013 C34.6080535,6.28515152 34.832201,6.50554545 35.1087718,6.50554545 L38.9770956,6.50554545 C41.2246109,6.50554545 42.873249,5.89633333 42.873249,3.84109091 C42.873249,1.80706061 41.2140399,1.18745455 38.9665246,1.18745455 L35.1087718,1.18745455 C34.832201,1.18745455 34.6080535,1.40784848 34.6080535,1.67978788 L34.6080535,1.67978788 Z M39.008377,0 C42.0646785,0 44.2071314,1.06357576 44.2071314,3.74860606 C44.2071314,5.23006061 43.4803241,6.25036364 42.3287368,6.77748485 C42.131556,6.86784848 42.1337133,7.14424242 42.3343458,7.22633333 C43.6507538,7.76321212 44.5117476,8.84524242 44.5117476,10.512303 C44.5117476,13.2694545 42.4426442,14.4569091 39.2499989,14.4569091 L33.8275285,14.4569091 C33.5509577,14.4569091 33.3268102,14.2365152 33.3268102,13.9645758 L33.3268102,0.492545455 C33.3268102,0.220393939 33.5509577,0 33.8275285,0 L39.008377,0 Z" id="Fill-5"></path>
                    <path d="M49.3715231,14.4569091 L49.0919321,14.4569091 C48.8151455,14.4569091 48.590998,14.2365152 48.590998,13.9645758 L48.590998,0.492333333 C48.590998,0.220393939 48.8151455,0 49.0919321,0 L49.3715231,0 C49.6480939,0 49.8722414,0.220393939 49.8722414,0.492333333 L49.8722414,13.9645758 C49.8722414,14.2365152 49.6480939,14.4569091 49.3715231,14.4569091" id="Fill-7"></path>
                    <path d="M55.9779166,8.17515152 L55.9779166,12.7771212 C55.9779166,13.0490606 56.202064,13.2694545 56.4786348,13.2694545 L60.5672229,13.2694545 C62.9618686,13.2694545 64.537373,12.5673333 64.537373,10.4707273 C64.537373,8.37475758 62.9618686,7.68281818 60.5672229,7.68281818 L56.4786348,7.68281818 C56.202064,7.68281818 55.9779166,7.90321212 55.9779166,8.17515152 L55.9779166,8.17515152 Z M55.9779166,1.67978788 L55.9779166,6.013 C55.9779166,6.28515152 56.202064,6.50554545 56.4786348,6.50554545 L60.3469586,6.50554545 C62.5944739,6.50554545 64.243112,5.89633333 64.243112,3.84109091 C64.243112,1.80706061 62.5839029,1.18745455 60.3363876,1.18745455 L56.4786348,1.18745455 C56.202064,1.18745455 55.9779166,1.40784848 55.9779166,1.67978788 L55.9779166,1.67978788 Z M60.37824,0 C63.4345415,0 65.5769944,1.06357576 65.5769944,3.74860606 C65.5769944,5.23006061 64.8501871,6.25036364 63.6985998,6.77748485 C63.501419,6.86784848 63.5035764,7.14424242 63.7042088,7.22633333 C65.0206168,7.76321212 65.8816106,8.84524242 65.8816106,10.512303 C65.8816106,13.2694545 63.8125072,14.4569091 60.6198619,14.4569091 L55.1973915,14.4569091 C54.9208207,14.4569091 54.6966732,14.2365152 54.6966732,13.9645758 L54.6966732,0.492545455 C54.6966732,0.220393939 54.9208207,0 55.1973915,0 L60.37824,0 Z" id="Fill-9"></path>
                    <path d="M79.6234558,14.4569091 L70.5007183,14.4569091 C70.2243632,14.4569091 70,14.2365152 70,13.9645758 L70,0.492333333 C70,0.220393939 70.2243632,0 70.5007183,0 L79.5498906,0 C79.8264614,0 80.0503931,0.220393939 80.0503931,0.492333333 L80.0503931,0.695121212 C80.0503931,0.966848485 79.8264614,1.18745455 79.5498906,1.18745455 L71.7819616,1.18745455 C71.5056066,1.18745455 71.2812434,1.40784848 71.2812434,1.67978788 L71.2812434,6.09572727 C71.2812434,6.36766667 71.5056066,6.58827273 71.7819616,6.58827273 L79.2976977,6.58827273 C79.5742685,6.58827273 79.7986317,6.80866667 79.7986317,7.08060606 L79.7986317,7.273 C79.7986317,7.54515152 79.5742685,7.76554545 79.2976977,7.76554545 L71.7819616,7.76554545 C71.5056066,7.76554545 71.2812434,7.98593939 71.2812434,8.25787879 L71.2812434,12.7771212 C71.2812434,13.0490606 71.5056066,13.2694545 71.7819616,13.2694545 L79.6234558,13.2694545 C79.8998109,13.2694545 80.1239584,13.4898485 80.1239584,13.762 L80.1239584,13.9645758 C80.1239584,14.2365152 79.8998109,14.4569091 79.6234558,14.4569091" id="Fill-11"></path>
                </g>
                <g id="embibe-logo">
                    <path d="M10.548803,20.9373606 C4.73369697,20.9373606 0.00286925995,16.2855424 0.00286925995,10.5680273 C0.00286925995,9.70320909 0.715869651,9.00193636 1.59584805,9.00193636 C2.47539497,9.00193636 3.18839537,9.70320909 3.18839537,10.5680273 C3.18839537,14.5586636 6.49041775,17.8049667 10.548803,17.8049667 C11.4285657,17.8049667 12.1415661,18.5062394 12.1415661,19.3712697 C12.1415661,20.2360879 11.4285657,20.9373606 10.548803,20.9373606" id="Fill-13" fill="#9E9D9D"></path>
                    <g id="Group-17" transform="translate(0.000000, 2.695021)">
                        <mask id="mask-2" fill="white">
                            <use xlink:href="#path-1"></use>
                        </mask>
                        <g id="Clip-16"></g>
                        <path d="M2.29993863,12.8558182 C1.67797793,12.8558182 1.0870829,12.4954242 0.83100681,11.8963939 C-0.835321487,7.99972727 0.0487558513,3.54751515 3.08326826,0.553212121 C3.70415029,-0.0593939394 4.7129218,-0.0610909091 5.33596117,0.549393939 C5.95921628,1.16009091 5.96072642,2.15175758 5.33984438,2.76436364 C3.22176939,4.85439394 2.60455483,7.96218182 3.76757605,10.682 C4.10886701,11.4795758 3.72766528,12.3976364 2.91650599,12.7327879 C2.7152263,12.8163636 2.50574873,12.8558182 2.29993863,12.8558182" id="Fill-15" fill="#E6587F" mask="url(#mask-2)"></path>
                    </g>
                    <g id="Group-20" transform="translate(2.588806, 0.149567)">
                        <mask id="mask-4" fill="white">
                            <use xlink:href="#path-3"></use>
                        </mask>
                        <g id="Clip-19"></g>
                        <path d="M1.62175768,5.76944242 C1.21358923,5.76944242 0.805636509,5.61607879 0.494332556,5.30977576 C-0.126980947,4.69780606 -0.126333746,3.70613939 0.49627416,3.09501818 C2.00835275,1.61059394 3.91414563,0.623381818 6.00784269,0.239866667 C8.04997937,-0.13410303 10.1382831,0.0858666667 12.0466648,0.876654545 C12.8573926,1.21265455 13.2377314,2.13113939 12.896009,2.92807879 C12.5545023,3.7252303 11.6203747,4.0992 10.8094311,3.7632 C8.03919267,2.61541212 4.87459275,3.22335152 2.74702547,5.31168485 C2.43615299,5.61692727 2.02884747,5.76944242 1.62175768,5.76944242" id="Fill-18" fill="#F4B325" mask="url(#mask-4)"></path>
                    </g>
                    <path d="M17.6547526,12.1447879 L7.99375912,12.1447879 C7.11399646,12.1447879 6.40078034,11.4435152 6.40078034,10.578697 C6.40078034,9.71366667 7.11399646,9.01239394 7.99375912,9.01239394 L17.4252118,9.01239394 C17.6888386,9.01239394 17.7214144,8.83357576 17.6946634,8.73324242 C17.1162809,6.56324242 15.5284797,4.76021212 13.4125621,3.88881818 C12.6011871,3.55493939 12.2186909,2.63730303 12.558256,1.83930303 C12.8980369,1.04151515 13.831733,0.665424242 14.6428923,0.999515152 C17.7531273,2.28009091 20.0692459,4.96745455 20.8389843,8.18830303 C21.0680937,9.14624242 20.8437305,10.1398182 20.2234956,10.9140606 C19.6015349,11.6906364 18.6687017,12.1392727 17.6638134,12.1447879 L17.6547526,12.1447879 Z" id="Fill-21" fill="#56B5E6"></path>
                </g>
                <g id="Tilted-beta" transform="translate(112.919765, 3.250000)" fill="#928F90">
                    <g id="Group-45" transform="translate(0.000000, 0.000000)">
                        <path d="M2.70194931,2.92567273 C3.40912488,2.92567273 3.91911972,2.62912727 3.91911972,1.8324 C3.91911972,1.29955152 3.61752379,1.07597576 2.98283479,1.07597576 L2.13111753,1.07597576 L1.79759299,2.92567273 L2.70194931,2.92567273 Z M1.34110015,5.52033939 L2.43228199,5.52033939 C3.14894986,5.52033939 3.73143126,5.26494545 3.73143126,4.45930909 C3.73143126,3.98882424 3.50275338,3.67106667 2.75458837,3.67106667 L1.67289882,3.67106667 L1.34110015,5.52033939 Z M3.52346383,3.27355152 C4.282847,3.3444 4.68842665,3.75252121 4.68842665,4.42706667 C4.68842665,5.75706667 3.70036559,6.30900606 2.32872974,6.30900606 L0.217989699,6.30900606 L1.28889256,0.287733333 L3.23265459,0.287733333 C4.43774391,0.287733333 4.9162416,0.790460606 4.9162416,1.63682424 C4.9162416,2.60749091 4.27206031,3.15094545 3.52346383,3.23282424 L3.52346383,3.27355152 Z" id="Fill-23"></path>
                        <polygon id="Fill-25" points="10.2033606 6.30883636 6.43060697 6.30883636 7.50064689 0.287987879 11.273832 0.287987879 11.1288589 1.10592727 8.33208517 1.10592727 8.02056548 2.88477576 10.4838146 2.88477576 10.3388415 3.70313939 7.87559233 3.70313939 7.55328595 5.49047273 10.3388415 5.49047273"></polygon>
                        <polygon id="Fill-27" points="13.5265681 6.30883636 14.4408482 1.10592727 12.6636327 1.10592727 12.8086058 0.287987879 17.3726712 0.287987879 17.2164799 1.10592727 15.4280463 1.10592727 14.5029795 6.30883636"></polygon>
                        <path d="M19.2612054,3.88560606 L21.2153227,3.88560606 C20.8934478,2.31124242 20.7579669,0.932030303 20.7687536,0.932030303 L20.7269012,0.932030303 C20.7269012,0.932030303 20.4977919,1.58748485 19.9890914,2.52590909 L19.2612054,3.88560606 Z M21.3607273,4.66324242 L18.8560572,4.66324242 L17.9819037,6.30887879 L16.9433609,6.30887879 L20.248835,0.288030303 L21.5061319,0.288030303 L22.6499528,6.30887879 L21.6515365,6.30887879 L21.3607273,4.66324242 Z" id="Fill-29"></path>
                    </g>
                </g>
            </g>
        </g>
    </g>
</svg>